<?xml version="1.0" standalone="no"?>
<!DOCTYPE svg PUBLIC "-//W3C//DTD SVG 20010904//EN"
 "http://www.w3.org/TR/2001/REC-SVG-20010904/DTD/svg10.dtd">
<svg version="1.0" xmlns="http://www.w3.org/2000/svg"
 width="512.000000pt" height="512.000000pt" viewBox="0 0 512.000000 512.000000"
 preserveAspectRatio="xMidYMid meet">
<metadata>
Created by potrace 1.14, written by Peter Selinger 2001-2017
</metadata>
<g transform="translate(0.000000,512.000000) scale(0.100000,-0.100000)"
fill="#000000" stroke="none">
<path d="M2437 4794 c-1 -1 -40 -4 -87 -8 -303 -21 -554 -87 -815 -212 -202
-97 -384 -234 -529 -400 -124 -141 -210 -282 -301 -489 -34 -78 -88 -259 -101
-340 -3 -22 -8 -43 -9 -46 -2 -3 -7 -28 -11 -55 -3 -27 -8 -58 -10 -68 -7 -38
-18 -242 -17 -330 1 -118 13 -273 27 -346 3 -14 8 -45 11 -70 13 -97 46 -207
134 -443 49 -131 23 -237 -81 -337 -48 -45 -46 -44 -179 -114 -103 -56 -147
-93 -176 -151 -89 -176 -42 -349 117 -430 63 -32 95 -37 251 -40 128 -2 142
-4 191 -29 29 -15 80 -52 113 -83 218 -203 435 -341 655 -416 162 -55 239 -66
435 -62 245 5 381 44 575 164 14 8 84 57 155 107 72 51 155 103 185 115 78 31
185 29 315 -6 292 -77 315 -82 393 -79 202 8 250 24 387 132 112 88 207 144
275 162 25 7 106 14 181 15 153 3 195 15 263 76 70 61 91 104 91 189 -1 136
-52 212 -222 329 -122 83 -203 164 -242 242 -41 82 -40 122 6 262 20 61 38
117 39 122 1 6 11 42 22 80 59 201 86 396 86 620 1 378 -46 612 -186 925 -22
48 -127 232 -138 240 -3 3 -17 21 -30 40 -32 48 -71 93 -145 170 -176 185
-387 320 -655 423 -58 22 -155 52 -155 47 0 -1 -13 4 -30 10 -31 12 -183 45
-248 55 -20 3 -52 7 -70 10 -91 12 -459 28 -470 19z"/>
</g>
</svg>
